<?xml version="1.0" encoding="utf-8"?>
<!-- Svg Vector Icons : http://www.onlinewebfonts.com/icon -->
<!DOCTYPE svg PUBLIC "-//W3C//DTD SVG 1.1//EN" "http://www.w3.org/Graphics/SVG/1.1/DTD/svg11.dtd">
<svg version="1.1" xmlns="http://www.w3.org/2000/svg" xmlns:xlink="http://www.w3.org/1999/xlink" x="0px" y="0px" viewBox="0 0 1000 1000" enable-background="new 0 0 1000 1000" xml:space="preserve">
<metadata> Svg Vector Icons : http://www.onlinewebfonts.com/icon </metadata>
<g><g transform="translate(0.000000,511.000000) scale(0.100000,-0.100000)"><path d="M3249,2949.8c-233.6-57.4-394.4-181.9-643.3-499.7l-151.3-193.4l-141.7-34.5c-185.7-44-524.6-214.4-681.6-342.7C1485.6,1760.8,618.3,788.2,484.2,592.9C300.4,328.7,183.6,37.6,128.1-286c-151.3-892.2,319.8-1824.7,1131.6-2240.1c354.2-180,582.1-231.7,1003.3-229.8c394.4,1.9,584,46,928.6,216.3c438.5,216.4,750.6,528.5,970.7,968.8c70.8,141.7,168.5,411.7,168.5,467.2c0,63.2,24.9,59.4,90-17.2c91.9-105.3,206.8-181.9,352.3-229.8c268-91.9,597.4-3.8,790.7,212.5c55.5,61.3,90,88.1,95.7,72.8c3.8-15.3,21.1-82.3,40.2-151.2c47.9-195.3,239.3-561,384.8-744.8c298.7-371.4,712.3-633.8,1189-752.5c141.7-36.4,220.2-42.1,494-42.1c289.1,1.9,346.5,7.7,517,51.7c260.4,70.8,608.9,245.1,809.9,405.9c785,633.8,1028.2,1707.9,587.8,2603.9c-55.5,116.8-149.3,271.9-204.9,346.6c-183.8,239.3-974.5,1118.2-1104.8,1225.4c-158.9,134-486.3,298.7-677.8,344.6l-147.4,34.5l-151.3,193.4c-84.2,105.3-195.3,233.6-247,281.5c-277.6,260.4-679.7,317.8-1030.1,147.4c-128.3-61.3-317.8-245.1-386.8-377.2c-72.8-137.9-118.7-304.4-118.7-438.5c0-55.5,21-204.9,47.9-331.2l49.8-229.8l-74.7-126.4l-76.6-126.4l-61.3,90c-204.9,296.8-656.7,344.6-911.4,93.8c-40.2-40.2-91.9-99.6-113-128.3l-38.3-55.5l-72.8,128.3l-74.7,128.3l49.8,229.8c57.4,264.2,61.3,382.9,21.1,541.8c-109.1,413.6-484.4,702.7-905.6,696.9C3394.5,2974.7,3302.6,2963.2,3249,2949.8z M2668.9,1044.7c620.3-160.8,1097.1-647.2,1254.1-1279c49.8-195.3,44-616.5-9.6-819.5c-158.9-591.6-605-1045.4-1204.3-1229.2c-151.3-46-197.2-51.7-465.3-51.7s-314,5.7-465.3,51.7c-599.3,183.8-1043.5,635.7-1204.3,1229.2c-59.3,218.3-59.3,641.4,1.9,861.6c176.2,651,698.9,1139.2,1357.5,1263.7C2128.9,1107.9,2473.6,1096.4,2668.9,1044.7z M8183.1,1044.7c620.3-160.8,1097.1-647.2,1254.1-1279c49.8-195.3,44-616.5-9.6-819.5c-158.9-587.8-605-1045.4-1200.5-1227.3c-155.1-47.9-201-53.6-469.1-53.6c-268,0-314,5.7-465.3,51.7c-599.3,183.8-1043.5,635.7-1204.3,1229.2c-59.3,218.3-59.3,641.4,1.9,861.6c176.1,651,698.9,1139.2,1357.5,1263.7C7643.1,1107.9,7987.8,1096.4,8183.1,1044.7z M5184.7-209.4c296.8-137.9,365.7-501.6,137.9-733.3c-134-137.9-363.8-178.1-526.5-95.7c-90,47.9-193.4,166.6-225.9,260.4c-61.3,181.9-24.9,331.3,114.9,472.9C4828.6-159.6,5004.7-125.1,5184.7-209.4z"/></g></g>
</svg>